# xmcd CD database file generated by OrangeCD 6.1
#
# Track frame offsets:
#	150
#	11366
#	23613
#	37503
#	51054
#	64463
#	77691
#	89070
#	102988
#	116642
#	130559
#	142420
#	155175
#	168873
#	179291
#	193023
#	204970
#	218524
#	230612
#	242794
#	253386
#	266460
#	279820
#	290262
#	302458
#
# Disc length: 4173 seconds
#
# Revision: 1
# Processed by: cddbd v1.5.2PL0 Copyright (c) Steve Scherf et al.
# Submitted via: OrangeCD 6.1
#
DISCID=59104b19
DTITLE=Collected - Rhythm and Blues Songs - Coolest Cuts From America And Beyond
DYEAR=2008
DGENRE=R&B/Compilations
TTITLE0=Johnny Ace - Pledging My Love
TTITLE1=The Drifters - Ador
TTITLE2=Laverne Baker - Soul On Fire
TTITLE3=The Cardinals - The Door Is Still Open
TTITLE4=Laverne Baker - Play It Fair
TTITLE5=Linda Hayes and The Platters - Please Have Mercy
TTITLE6=The Four Tops - Hey Baby
TTITLE7=The Enchanters - I've Lost
TTITLE8=Viola Watkins and The Crows - Paint A Sky For Me
TTITLE9=Chuck Berry - Wee Wee Hours
TTITLE10=Little Richard - I'm Just A Lonely Guy
TTITLE11=B.B. King - Everyday I Have The Blues
TTITLE12=Edna Mc Griff - Why Oh Why
TTITLE13=The Wrens - Love's Something That's Made For Two
TTITLE14=Ray Charles - A Fool For You
TTITLE15=Camile Howard - I'm Blue
TTITLE16=Sonny Till - Lonely Wine
TTITLE17=The Platters - The Great Pretender
TTITLE18=Nat King Cole - Love Is A Many Splendoured Thing
TTITLE19=Jimmy Reed - Ain't That Loving You Baby
TTITLE20=Ray Charles - I've Got A Woman
TTITLE21=The Penguins - Earth Angel
TTITLE22=The Five Keys - Close Your Eyes
TTITLE23=The Harptones - Life Is But A Dream
TTITLE24=The Cadillacs - Speedoo
EXTD=
EXTT0=
EXTT1=
EXTT2=
EXTT3=
EXTT4=
EXTT5=
EXTT6=
EXTT7=
EXTT8=
EXTT9=
EXTT10=
EXTT11=
EXTT12=
EXTT13=
EXTT14=
EXTT15=
EXTT16=
EXTT17=
EXTT18=
EXTT19=
EXTT20=
EXTT21=
EXTT22=
EXTT23=
EXTT24=
PLAYORDER=
